<?xml version="1.0" encoding="UTF-8" standalone="no"?>
<svg
   xmlns:dc="http://purl.org/dc/elements/1.1/"
   xmlns:cc="http://creativecommons.org/ns#"
   xmlns:rdf="http://www.w3.org/1999/02/22-rdf-syntax-ns#"
   xmlns:svg="http://www.w3.org/2000/svg"
   xmlns="http://www.w3.org/2000/svg"
   xmlns:sodipodi="http://sodipodi.sourceforge.net/DTD/sodipodi-0.dtd"
   xmlns:inkscape="http://www.inkscape.org/namespaces/inkscape"
   version="1.1"
   id="svg4"
   sodipodi:docname="saraiva-logo.svg"
   width="700"
   height="700"
   inkscape:export-filename="C:\Users\suitedoalex\sites\svg\saraiva-logo-0.png"
   inkscape:export-xdpi="561.73999"
   inkscape:export-ydpi="561.73999"
   inkscape:version="0.92.4 (5da689c313, 2019-01-14)">
  <metadata
     id="metadata10">
    <rdf:RDF>
      <cc:Work
         rdf:about="">
        <dc:format>image/svg+xml</dc:format>
        <dc:type
           rdf:resource="http://purl.org/dc/dcmitype/StillImage" />
        <dc:title></dc:title>
      </cc:Work>
    </rdf:RDF>
  </metadata>
  <defs
     id="defs8" />
  <sodipodi:namedview
     pagecolor="#ffffff"
     bordercolor="#666666"
     borderopacity="1"
     objecttolerance="10"
     gridtolerance="10"
     guidetolerance="10"
     inkscape:pageopacity="0"
     inkscape:pageshadow="2"
     inkscape:window-width="1600"
     inkscape:window-height="837"
     id="namedview6"
     showgrid="false"
     inkscape:zoom="0.59"
     inkscape:cx="294.53499"
     inkscape:cy="88.238749"
     inkscape:window-x="-8"
     inkscape:window-y="-8"
     inkscape:window-maximized="1"
     inkscape:current-layer="svg4" />
  <path
     data-name="Path 176"
     d="m 592.56319,357.28746 a 7.379463,7.379463 0 0 1 -6.81493,8.21846 c -3.46204,0 -5.26169,-1.29437 -5.26169,-4.38214 0,-4.73459 5.30224,-5.17124 9.92765,-5.17124 h 2.18328 z M 565.55922,344.5309 a 35.618541,35.618541 0 0 1 15.34218,-3.90182 c 5.58917,0 11.63684,0.74543 11.70546,6.57478 -2.01797,-0.15283 -5.52368,-0.6238 -8.6364,-0.6238 -10.96004,0 -23.70412,2.8944 -23.70412,17.0077 0,9.55649 8.32763,13.52382 16.87671,13.52382 a 16.680206,16.680206 0 0 0 14.94919,-7.71631 h 0.21833 v 6.57477 h 20.53836 V 348.0678 c 0,-16.76754 -15.34217,-19.06933 -28.07066,-19.06933 a 59.179176,59.179176 0 0 0 -19.17849,2.65112 z m -27.98955,-14.48757 -5.67652,30.11669 h -0.15283 l -5.742,-30.11669 H 503.2299 l 13.63298,46.02651 h 28.50419 l 13.93864,-46.02651 z m -38.55349,-17.15429 h -22.14462 v 12.33861 h 22.14462 z m -22.20389,63.19016 h 22.20389 v -46.03587 h -22.14462 z m -27.79306,-18.78239 a 7.3888199,7.3888199 0 0 1 -6.88355,8.21847 c -3.43086,0 -5.17124,-1.29437 -5.17124,-4.38215 0,-4.73458 5.23985,-5.17123 9.84032,-5.17123 h 2.18328 z m -27.06947,-12.75655 a 35.868058,35.868058 0 0 1 15.34217,-3.90182 c 5.52368,0 11.63684,0.74543 11.70547,6.57477 -2.01798,-0.15283 -5.52369,-0.62379 -8.61457,-0.62379 -11.09104,0 -23.70412,2.89439 -23.70412,17.0077 0,9.55649 8.26213,13.52381 16.8112,13.52381 a 16.54921,16.54921 0 0 0 14.92736,-7.71631 h 0.21832 v 6.57477 h 20.60386 v -27.90223 c 0,-16.76753 -15.34217,-19.06933 -28.09872,-19.06933 a 59.179176,59.179176 0 0 0 -19.22216,2.65111 z M 375.7673,330.05268 v 46.02652 h 22.20388 v -16.70828 a 11.792794,11.792794 0 0 1 11.33119,-12.14212 13.458319,13.458319 0 0 1 5.04024,0.72361 v -18.49857 a 15.34529,15.34529 0 0 0 -3.63982,-0.43977 c -6.92722,0 -11.37486,4.95291 -14.03533,11.50585 h -0.15283 v -10.45476 z m -27.90224,27.2223 a 7.382582,7.382582 0 0 1 -6.83988,8.21847 c -3.43086,0 -5.23985,-1.29437 -5.23985,-4.38215 0,-4.73458 5.32718,-5.17123 9.86215,-5.17123 h 2.18328 z m -27.00397,-12.75656 a 35.615422,35.615422 0 0 1 15.35153,-3.92365 c 5.52369,0 11.63685,0.74544 11.70547,6.57478 -2.01797,-0.15283 -5.52369,-0.6238 -8.61458,-0.6238 -10.96002,0 -23.7041,2.8944 -23.7041,17.0077 0,9.55649 8.2403,13.52382 16.78937,13.52382 a 16.767537,16.767537 0 0 0 15.01468,-7.71632 h 0.15283 v 6.57478 h 20.60386 v -27.8804 c 0,-16.76753 -15.34218,-19.06933 -28.07066,-19.06933 a 59.179176,59.179176 0 0 0 -19.17849,2.65111 z m -12.78773,-28.93148 a 101.87152,101.87152 0 0 0 -20.31692,-2.18328 c -13.93864,0 -31.62627,3.0254 -31.62627,19.85843 0,24.00041 32.28437,16.4151 32.28437,24.76768 0,3.11896 -4.99034,4.18565 -10.49842,4.18565 A 56.593557,56.593557 0 0 1 256.8101,358.1826 v 15.95661 a 107.22366,107.22366 0 0 0 25.29478,2.95989 c 13.65482,0 29.94203,-4.16381 29.94203,-20.66936 0,-23.76024 -32.24071,-16.19677 -32.24071,-24.10957 0,-4.03282 6.40012,-4.12015 10.06177,-4.12015 a 55.517516,55.517516 0 0 1 18.23657,3.11896 z m -82.32499,-9.66879 -65.66662,12.62557 12.62555,64.72469 65.68845,-12.60373 -12.62555,-64.75276 z m -131.573398,27.57163 9.335058,49.21097 c 22.99298,-16.46188 44.28925,-19.39682 54.44459,-11.83645 l -9.98068,-49.62268 c -6.57477,-6.57478 -30.40051,-7.25471 -53.764659,12.25128 m -7.05821,-2.47646 c 23.102149,-21.67678 57.906639,-27.26596 66.870539,-11.83646 l 12.82205,65.75395 c -12.0891,-15.02092 -35.58423,-16.55545 -67.488093,9.15415 z"
     id="path2"
     inkscape:connector-curvature="0"
     style="fill:#000000;fill-opacity:1;stroke-width:3.11896157"
     inkscape:export-filename="C:\Users\suitedoalex\sites\svg\saraiva-logo-6.png"
     inkscape:export-xdpi="262.96472"
     inkscape:export-ydpi="262.96472" />
  <rect
     style="fill:#000000;fill-rule:evenodd;stroke-width:0.4766497"
     id="rect817"
     width="606.4339"
     height="209.53198"
     x="56.370941"
     y="767.77393"
     inkscape:export-filename="C:\Users\suitedoalex\sites\svg\saraiva-logo-4.png"
     inkscape:export-xdpi="227.95561"
     inkscape:export-ydpi="227.95561" />
  <path
     data-name="Path 176"
     d="m 602.15108,879.82741 a 7.379463,7.379463 0 0 1 -6.81493,8.2184 c -3.46204,0 -5.2617,-1.2943 -5.2617,-4.3821 0,-4.7346 5.30224,-5.1712 9.92765,-5.1712 h 2.18328 z m -27.00397,-12.7566 a 35.618541,35.618541 0 0 1 15.34218,-3.9018 c 5.58916,0 11.63684,0.7454 11.70546,6.5748 -2.01797,-0.1529 -5.52368,-0.6238 -8.6364,-0.6238 -10.96004,0 -23.70412,2.8944 -23.70412,17.0077 0,9.5565 8.32763,13.5238 16.87671,13.5238 a 16.680206,16.680206 0 0 0 14.94919,-7.7163 h 0.21833 v 6.5748 h 20.53836 v -27.9023 c 0,-16.7675 -15.34217,-19.0693 -28.07066,-19.0693 a 59.179176,59.179176 0 0 0 -19.17849,2.6511 z m -27.98955,-14.4876 -5.67652,30.1167 h -0.15283 l -5.742,-30.1167 h -22.76842 l 13.63298,46.0266 h 28.50419 l 13.93864,-46.0266 z m -38.55349,-17.1542 h -22.14462 v 12.3386 h 22.14462 z m -22.20389,63.1901 h 22.20389 v -46.0359 h -22.14462 z m -27.79307,-18.7824 a 7.3888199,7.3888199 0 0 1 -6.88355,8.2185 c -3.43086,0 -5.17124,-1.2944 -5.17124,-4.3822 0,-4.7345 5.23985,-5.1712 9.84032,-5.1712 h 2.18329 z m -27.06947,-12.7565 a 35.868058,35.868058 0 0 1 15.34217,-3.9018 c 5.52368,0 11.63684,0.7454 11.70547,6.5747 -2.01798,-0.1528 -5.52369,-0.6238 -8.61457,-0.6238 -11.09104,0 -23.70412,2.8944 -23.70412,17.0077 0,9.5565 8.26213,13.5238 16.8112,13.5238 a 16.54921,16.54921 0 0 0 14.92736,-7.7163 h 0.21832 v 6.5748 h 20.60386 v -27.9022 c 0,-16.7676 -15.34217,-19.0694 -28.09872,-19.0694 a 59.179176,59.179176 0 0 0 -19.22216,2.6512 z m -46.18245,-14.4876 v 46.0265 h 22.20388 v -16.7083 a 11.792794,11.792794 0 0 1 11.33119,-12.1421 13.458319,13.458319 0 0 1 5.04024,0.7236 v -18.4985 a 15.34529,15.34529 0 0 0 -3.63982,-0.4398 c -6.92722,0 -11.37486,4.9529 -14.03533,11.5058 h -0.15283 v -10.4547 z m -27.90224,27.2223 a 7.382582,7.382582 0 0 1 -6.83988,8.2185 c -3.43086,0 -5.23985,-1.2944 -5.23985,-4.3822 0,-4.7346 5.32718,-5.1712 9.86215,-5.1712 h 2.18328 z m -27.00397,-12.7566 a 35.615422,35.615422 0 0 1 15.35153,-3.9236 c 5.52369,0 11.63685,0.7454 11.70547,6.5748 -2.01797,-0.1529 -5.52369,-0.6238 -8.61458,-0.6238 -10.96002,0 -23.7041,2.8944 -23.7041,17.0077 0,9.5565 8.2403,13.5238 16.78937,13.5238 a 16.767537,16.767537 0 0 0 15.01468,-7.7163 h 0.15283 v 6.5747 h 20.60386 v -27.8804 c 0,-16.7675 -15.34218,-19.0693 -28.07066,-19.0693 a 59.179176,59.179176 0 0 0 -19.17849,2.6511 z m -12.78773,-28.9314 a 101.87152,101.87152 0 0 0 -20.31692,-2.1833 c -13.93864,0 -31.62627,3.0254 -31.62627,19.8584 0,24.0004 32.28437,16.4151 32.28437,24.7677 0,3.1189 -4.99034,4.1856 -10.49842,4.1856 a 56.593557,56.593557 0 0 1 -21.10602,-4.0328 v 15.9566 a 107.22366,107.22366 0 0 0 25.29478,2.9599 c 13.65482,0 29.94203,-4.1638 29.94203,-20.6693 0,-23.7603 -32.24071,-16.1968 -32.24071,-24.1096 0,-4.0328 6.40012,-4.1202 10.06177,-4.1202 a 55.517516,55.517516 0 0 1 18.23657,3.119 z m -82.32499,-9.6688 -65.66663,12.6255 12.62555,64.7247 65.68846,-12.6037 -12.62555,-64.7528 z m -131.5734,27.5716 9.33505,49.211 c 22.99298,-16.4619 44.28925,-19.3969 54.44459,-11.8365 l -9.98068,-49.6227 c -6.57477,-6.5747 -30.40051,-7.2547 -53.76465,12.2513 m -7.05821,-2.4764 c 23.10214,-21.6768 57.90663,-27.266 66.87053,-11.8365 l 12.82205,65.7539 c -12.0891,-15.0209 -35.58423,-16.5554 -67.48809,9.1542 z"
     id="path2-9"
     inkscape:connector-curvature="0"
     style="fill:#ffdd00;fill-opacity:1;stroke-width:3.11896157"
     inkscape:export-filename="C:\Users\suitedoalex\sites\svg\saraiva-logo-4.png"
     inkscape:export-xdpi="227.95561"
     inkscape:export-ydpi="227.95561" />
  <rect
     style="fill:#ffdd00;fill-rule:evenodd;stroke-width:0.4766497;fill-opacity:1"
     id="rect817-5"
     width="606.4339"
     height="209.53198"
     x="48.785156"
     y="1037.3901"
     inkscape:export-filename="C:\Users\suitedoalex\sites\svg\saraiva-logo-5.png"
     inkscape:export-xdpi="227.9556"
     inkscape:export-ydpi="227.9556" />
  <path
     data-name="Path 176"
     d="m 594.56529,1149.4437 a 7.379463,7.379463 0 0 1 -6.81493,8.2184 c -3.46204,0 -5.2617,-1.2943 -5.2617,-4.3821 0,-4.7346 5.30224,-5.1712 9.92765,-5.1712 h 2.18328 z m -27.00397,-12.7566 a 35.618541,35.618541 0 0 1 15.34218,-3.9018 c 5.58916,0 11.63684,0.7454 11.70546,6.5748 -2.01797,-0.1529 -5.52368,-0.6238 -8.6364,-0.6238 -10.96004,0 -23.70412,2.8944 -23.70412,17.0077 0,9.5565 8.32763,13.5238 16.87671,13.5238 a 16.680206,16.680206 0 0 0 14.94919,-7.7163 h 0.21833 v 6.5748 h 20.53836 v -27.9023 c 0,-16.7675 -15.34217,-19.0693 -28.07066,-19.0693 a 59.179176,59.179176 0 0 0 -19.17849,2.6511 z m -27.98955,-14.4876 -5.67652,30.1167 h -0.15283 l -5.742,-30.1167 H 505.232 l 13.63298,46.0266 h 28.50419 l 13.93864,-46.0266 z m -38.55349,-17.1542 h -22.14462 v 12.3386 h 22.14462 z m -22.20389,63.1901 h 22.20389 v -46.0359 h -22.14462 z m -27.79307,-18.7824 a 7.3888199,7.3888199 0 0 1 -6.88355,8.2185 c -3.43086,0 -5.17124,-1.2944 -5.17124,-4.3822 0,-4.7345 5.23985,-5.1712 9.84032,-5.1712 h 2.18329 z m -27.06947,-12.7565 a 35.868058,35.868058 0 0 1 15.34217,-3.9018 c 5.52368,0 11.63684,0.7454 11.70547,6.5747 -2.01798,-0.1528 -5.52369,-0.6238 -8.61457,-0.6238 -11.09104,0 -23.70412,2.8944 -23.70412,17.0077 0,9.5565 8.26213,13.5238 16.8112,13.5238 a 16.54921,16.54921 0 0 0 14.92736,-7.7163 h 0.21832 v 6.5748 h 20.60386 v -27.9022 c 0,-16.7676 -15.34217,-19.0694 -28.09872,-19.0694 a 59.179176,59.179176 0 0 0 -19.22216,2.6512 z m -46.18245,-14.4876 v 46.0265 h 22.20388 v -16.7083 a 11.792794,11.792794 0 0 1 11.33119,-12.1421 13.458319,13.458319 0 0 1 5.04024,0.7236 v -18.4985 a 15.34529,15.34529 0 0 0 -3.63982,-0.4398 c -6.92722,0 -11.37486,4.9529 -14.03533,11.5058 h -0.15283 v -10.4547 z m -27.90224,27.2223 a 7.382582,7.382582 0 0 1 -6.83988,8.2185 c -3.43086,0 -5.23985,-1.2944 -5.23985,-4.3822 0,-4.7346 5.32718,-5.1712 9.86215,-5.1712 h 2.18328 z m -27.00397,-12.7566 a 35.615422,35.615422 0 0 1 15.35153,-3.9236 c 5.52369,0 11.63685,0.7454 11.70547,6.5748 -2.01797,-0.1529 -5.52369,-0.6238 -8.61458,-0.6238 -10.96002,0 -23.7041,2.8944 -23.7041,17.0077 0,9.5565 8.2403,13.5238 16.78937,13.5238 a 16.767537,16.767537 0 0 0 15.01468,-7.7163 h 0.15283 v 6.5747 h 20.60386 v -27.8804 c 0,-16.7675 -15.34218,-19.0693 -28.07066,-19.0693 a 59.179176,59.179176 0 0 0 -19.17849,2.6511 z m -12.78773,-28.9314 a 101.87152,101.87152 0 0 0 -20.31692,-2.1833 c -13.93864,0 -31.62627,3.0254 -31.62627,19.8584 0,24.0004 32.28437,16.4151 32.28437,24.7677 0,3.1189 -4.99034,4.1856 -10.49842,4.1856 a 56.593557,56.593557 0 0 1 -21.10602,-4.0328 v 15.9566 a 107.22366,107.22366 0 0 0 25.29478,2.9599 c 13.65482,0 29.94203,-4.1638 29.94203,-20.6693 0,-23.7603 -32.24071,-16.1968 -32.24071,-24.1096 0,-4.0328 6.40012,-4.1202 10.06177,-4.1202 a 55.517516,55.517516 0 0 1 18.23657,3.119 z m -82.32499,-9.6688 -65.66663,12.6255 12.62555,64.7247 65.68846,-12.6037 -12.62555,-64.7528 z m -131.5734,27.5716 9.33505,49.211 c 22.99298,-16.4619 44.28925,-19.3969 54.44459,-11.8365 l -9.98068,-49.6227 c -6.57477,-6.5747 -30.40051,-7.2547 -53.76465,12.2513 m -7.05821,-2.4764 c 23.10214,-21.6768 57.90663,-27.266 66.87053,-11.8365 l 12.82205,65.7539 c -12.0891,-15.0209 -35.58423,-16.5554 -67.48809,9.1542 z"
     id="path2-9-1"
     inkscape:connector-curvature="0"
     style="fill:#000000;fill-opacity:1;stroke-width:3.11896157"
     inkscape:export-filename="C:\Users\suitedoalex\sites\svg\saraiva-logo-5.png"
     inkscape:export-xdpi="227.9556"
     inkscape:export-ydpi="227.9556" />
</svg>
